<svg width="34" height="34" viewBox="0 0 34 34" fill="none" xmlns="http://www.w3.org/2000/svg">
<path d="M24.6697 32.2416C21.7388 33.5607 19.1984 34 15.7298 34C7.62084 34 0.488281 28.1865 0.488281 18.6123C0.488281 8.64662 7.71806 0 18.759 0C27.3568 0 33.5118 5.91122 33.5118 14.118C33.5118 21.25 29.5062 25.7444 24.2304 25.7444C21.9343 25.7444 20.2736 24.5719 20.0293 21.9826H19.9315C18.4174 24.4742 16.2191 25.7444 13.6298 25.7444C10.4545 25.7444 8.15847 23.3994 8.15847 19.3933C8.15847 13.4337 12.5551 8.01125 19.5894 8.01125C21.7388 8.01125 24.181 8.54887 25.4028 9.23259L23.9377 18.2702C23.4494 21.1517 23.791 22.4713 25.159 22.5197C27.2596 22.5686 29.8972 19.8815 29.8972 14.2641C29.8972 7.9135 25.7938 2.97925 18.2214 2.97925C10.7478 2.97925 4.20119 8.84159 4.20119 18.1719C4.20119 26.3298 9.42816 30.9708 16.7073 30.9708C19.1989 30.9708 21.8371 30.4337 23.7905 29.4073L24.6697 32.2416ZM20.322 12.0663C19.931 11.9685 19.4422 11.8708 18.8074 11.8708C15.5838 11.8708 13.0428 15.0461 13.0428 18.8073C13.0428 20.6635 13.8737 21.836 15.4855 21.836C17.2928 21.836 19.1984 19.5399 19.6377 16.7068L20.322 12.0663Z" fill="white"/>
</svg>
