<svg width="213" height="72" viewBox="0 0 213 72" fill="none" xmlns="http://www.w3.org/2000/svg">
<path d="M80.7112 17.6366C73.0844 35.1763 64.4558 48.5007 54.8254 57.6097C45.2274 66.6864 34.9506 71.2248 23.9952 71.2248C16.3361 71.2248 10.4222 69.2544 6.2533 65.3136C2.08443 61.3728 0 55.7685 0 48.5007C0 44.2046 0.614019 40.7322 1.84206 38.0834C3.10241 35.4347 4.73441 34.1104 6.73805 34.1104C7.73987 34.1104 8.51548 34.4334 9.06486 35.0794C9.64656 35.7254 9.93741 36.6299 9.93741 37.7927C9.93741 38.8264 9.64656 39.6501 9.06486 40.2638C8.51548 40.8775 7.31975 41.4751 5.4777 42.0565C3.95881 42.5087 2.87619 43.1871 2.22986 44.0915C1.61584 44.9637 1.30883 46.2073 1.30883 47.8223C1.30883 52.7645 4.02344 57.3513 9.45266 61.5828C14.9142 65.8143 21.2645 67.93 28.5034 67.93C38.2954 67.93 47.7804 63.1817 56.9584 53.6851C66.1363 44.1884 73.4884 31.3486 79.0146 15.1655C75.7829 11.1925 72.1472 8.15612 68.1076 6.05653C64.1004 3.92463 59.9638 2.85868 55.698 2.85868C49.2993 2.85868 44.0478 4.95828 39.9436 9.15747C35.8716 13.3244 33.8357 18.6703 33.8357 25.1952C33.8357 30.105 35.2576 34.2396 38.1015 37.5989C40.9777 40.9583 44.4841 42.638 48.6206 42.638C50.8182 42.638 52.9511 41.9112 55.0193 40.4576C57.1199 39.004 58.9943 36.9206 60.6425 34.2073C61.1595 33.3674 61.6604 32.3822 62.1452 31.2517C62.63 30.1211 62.9854 29.5559 63.2117 29.5559C63.3732 29.5559 63.5025 29.6043 63.5995 29.7012C63.7287 29.7658 63.8095 29.8789 63.8418 30.0404C63.8418 30.6218 63.5187 31.5262 62.8723 32.7537C62.2583 33.9812 61.4504 35.2571 60.4486 36.5814C58.3157 39.424 55.8273 41.6205 52.9834 43.1709C50.1718 44.6891 47.231 45.4482 44.1609 45.4482C39.7658 45.4482 36.0979 43.8977 33.157 40.7968C30.2485 37.6635 28.7943 33.7227 28.7943 28.9744C28.7943 25.0013 29.6507 21.2382 31.3635 17.6851C33.0762 14.1319 35.5646 10.9825 38.8286 8.23688C41.9634 5.55585 45.4374 3.52086 49.2508 2.1319C53.0642 0.710633 56.9584 0 60.9333 0C64.876 0 68.5116 0.66218 71.8402 1.98654C75.1689 3.3109 78.2874 5.34589 81.1959 8.09152C81.4868 6.92867 81.7615 5.45895 82.02 3.68237C82.3755 1.29206 82.9895 0.0969044 83.8621 0.0969044C84.3468 0.0969044 84.7185 0.22611 84.977 0.484522C85.2355 0.710633 85.3648 1.03365 85.3648 1.45357C85.3648 2.03499 85.2032 2.90713 84.8801 4.06999C84.5892 5.23284 83.959 7.20323 82.9895 9.98116C85.6718 13.7604 87.6755 17.8789 89.0005 22.3365C90.3578 26.7941 91.0364 31.5747 91.0364 36.6783C91.0364 39.7147 90.891 42.7026 90.6001 45.642C90.3093 48.5491 89.8568 51.5209 89.2428 54.5572C92.6038 45.9327 96.7565 38.1319 101.701 31.1548C106.645 24.1777 112.414 17.9919 119.007 12.5976C118.586 12.6299 117.94 12.6945 117.068 12.7914C114.45 13.0498 112.656 13.179 111.687 13.179C108.294 13.179 105.934 13.1144 104.609 12.9852C103.317 12.8237 102.67 12.5491 102.67 12.1615C102.67 11.9677 102.735 11.8223 102.864 11.7254C103.026 11.6285 103.252 11.5801 103.543 11.5801C103.64 11.5801 103.931 11.6124 104.416 11.677C106.548 11.9354 108.568 12.0646 110.475 12.0646C111.865 12.0646 113.4 11.9838 115.08 11.8223C116.793 11.6285 118.877 11.3217 121.333 10.9017C124.274 8.09152 126.94 5.95962 129.332 4.50606C131.756 3.02019 133.775 2.27725 135.391 2.27725C136.328 2.27725 137.104 2.55182 137.718 3.10094C138.364 3.65007 138.688 4.3284 138.688 5.13594C138.688 6.6541 137.508 7.97847 135.149 9.10902C132.79 10.2073 129.17 11.1602 124.29 11.9677C116.179 17.6851 109.279 24.2423 103.591 31.6393C97.9037 39.0363 93.1855 47.5639 89.4367 57.2221C88.9843 62.1965 88.3056 65.9112 87.4008 68.3661C86.4959 70.7887 85.3487 72 83.959 72C83.4743 72 83.0542 71.79 82.6987 71.3701C82.3755 70.9825 82.2139 70.4657 82.2139 69.8196C82.2139 68.7537 82.7148 66.9771 83.7167 64.4899C84.7508 61.9704 86.1566 59.1279 87.934 55.9623C88.1602 54.541 88.338 53.0713 88.4672 51.5532C88.5965 50.035 88.6611 48.5168 88.6611 46.9987C88.6611 41.6366 87.9986 36.5491 86.6736 31.7362C85.381 26.891 83.3935 22.1911 80.7112 17.6366Z" fill="white"/>
<path d="M112.22 60.1292C116.647 59.1602 120.445 57.2544 123.612 54.4118C126.779 51.5693 128.362 48.9044 128.362 46.4172C128.362 45.8681 128.185 45.3997 127.829 45.0121C127.506 44.6245 127.102 44.4307 126.617 44.4307C124.452 44.4307 121.915 45.9489 119.007 48.9852C116.098 52.0215 113.836 55.7362 112.22 60.1292ZM106.839 56.8345C106.29 57.5451 105.838 58.0619 105.482 58.3849C105.159 58.6756 104.884 58.821 104.658 58.821C104.496 58.821 104.383 58.8048 104.319 58.7725C104.222 58.7079 104.173 58.5949 104.173 58.4334C104.173 58.2073 104.513 57.6743 105.191 56.8345C105.87 55.9623 106.823 54.8641 108.051 53.5397C111.089 50.2127 114.159 47.6608 117.261 45.8843C120.396 44.1077 123.369 43.2194 126.181 43.2194C127.829 43.2194 129.154 43.6554 130.156 44.5276C131.158 45.3674 131.659 46.4657 131.659 47.8223C131.659 50.568 129.849 53.2167 126.229 55.7685C122.61 58.3203 117.762 60.2907 111.687 61.6797C111.493 62.8748 111.364 63.747 111.299 64.2961C111.234 64.8452 111.202 65.2974 111.202 65.6528C111.202 67.1063 111.541 68.2369 112.22 69.0444C112.931 69.852 113.917 70.2557 115.177 70.2557C116.858 70.2557 118.651 69.7066 120.558 68.6083C122.465 67.4778 124.743 65.6043 127.393 62.9879C128.492 61.8896 129.655 60.646 130.883 59.2571C132.143 57.8358 132.903 57.1252 133.161 57.1252C133.323 57.1252 133.452 57.1736 133.549 57.2705C133.678 57.3674 133.743 57.4805 133.743 57.6097C133.743 57.9004 133.436 58.4172 132.822 59.1602C132.208 59.9031 130.835 61.3728 128.702 63.5693C125.793 66.4764 123.24 68.5599 121.043 69.8196C118.845 71.0794 116.728 71.7093 114.692 71.7093C112.236 71.7093 110.216 70.7079 108.633 68.7052C107.049 66.6703 106.258 64.1023 106.258 61.0013C106.258 60.3553 106.306 59.6931 106.403 59.0148C106.5 58.3042 106.645 57.5774 106.839 56.8345Z" fill="white"/>
<path d="M162.343 62.2127C162.473 62.2127 162.731 62.2611 163.119 62.358C163.539 62.4549 163.846 62.5034 164.04 62.5034C165.236 62.5034 166.577 62.0996 168.063 61.2921C169.55 60.4845 170.891 59.4347 172.087 58.1427L173.396 56.6406C173.428 56.576 173.541 56.5114 173.735 56.4468C173.961 56.3822 174.139 56.3499 174.268 56.3499C174.365 56.3499 174.43 56.3822 174.462 56.4468C174.527 56.5114 174.559 56.6729 174.559 56.9314C174.559 57.1252 174.543 57.2544 174.511 57.319C174.511 57.3513 174.495 57.3836 174.462 57.4159L173.396 58.7241C171.845 60.4361 170.229 61.7281 168.548 62.6003C166.868 63.4401 165.107 63.86 163.264 63.86C162.715 63.86 162.263 63.8439 161.907 63.8116C161.584 63.7793 161.261 63.747 160.938 63.7147C158.191 66.2665 155.541 68.2207 152.988 69.5774C150.435 70.9341 148.124 71.6124 146.056 71.6124C144.472 71.6124 143.196 70.9986 142.226 69.7712C141.289 68.5437 140.82 66.9125 140.82 64.8775C140.82 62.0673 142.388 58.5626 145.523 54.3634C145.813 53.9758 146.023 53.6851 146.153 53.4912C147.607 51.4563 148.625 49.8573 149.207 48.6945C149.821 47.5316 150.128 46.5787 150.128 45.8358C150.128 45.4482 150.031 45.1736 149.837 45.0121C149.643 44.8183 149.32 44.7214 148.867 44.7214C147.833 44.7214 146.411 45.4482 144.602 46.9017C142.824 48.323 140.368 50.7456 137.233 54.1696C136.652 54.8156 135.957 55.6231 135.149 56.5922C133.792 58.1427 132.935 58.9179 132.58 58.9179C132.45 58.9179 132.337 58.8856 132.24 58.821C132.143 58.7241 132.095 58.6272 132.095 58.5303C132.095 58.2719 132.256 57.9166 132.58 57.4643C132.87 57.0121 133.468 56.2692 134.373 55.2355L137.524 51.7954C140.917 48.1454 143.406 45.7712 144.989 44.6729C146.573 43.5747 148.059 43.0256 149.449 43.0256C150.742 43.0256 151.792 43.5101 152.6 44.4791C153.408 45.4482 153.812 46.7241 153.812 48.3069C153.812 49.5666 153.553 50.8425 153.036 52.1346C152.551 53.4266 151.517 55.2517 149.934 57.6097L149.255 58.6756C145.959 63.6824 144.311 66.7026 144.311 67.7362C144.311 68.576 144.505 69.2059 144.892 69.6258C145.312 70.0458 145.943 70.2557 146.783 70.2557C149.821 70.2557 153.101 68.7052 156.623 65.6043C160.146 62.4711 162.586 58.7241 163.943 54.3634C164.363 52.9744 164.686 51.0363 164.913 48.5491C165.268 44.8668 166.335 43.0256 168.112 43.0256C168.985 43.0256 169.647 43.3163 170.099 43.8977C170.552 44.4791 170.778 45.319 170.778 46.4172C170.778 48.0969 170.019 50.3742 168.5 53.249C167.013 56.0915 164.961 59.0794 162.343 62.2127Z" fill="white"/>
<path d="M178.389 66.8641C178.389 67.8008 178.599 68.5437 179.019 69.0929C179.439 69.642 180.021 69.9165 180.764 69.9165C181.863 69.9165 183.22 69.3674 184.836 68.2692C186.484 67.1709 188.197 65.6366 189.974 63.6662C192.657 60.7268 194.725 57.8681 196.179 55.0902C197.666 52.2799 198.409 49.8573 198.409 47.8223C198.409 46.9502 198.086 46.2234 197.439 45.642C196.825 45.0283 196.066 44.7214 195.161 44.7214C193.545 44.7214 191.784 45.432 189.877 46.8533C187.971 48.2423 186.08 50.2127 184.206 52.7645C182.396 55.3163 180.974 57.8681 179.94 60.4199C178.906 62.9717 178.389 65.1198 178.389 66.8641ZM199.621 50.0027L203.693 44.0431L210.237 43.6554L199.33 60.8075C197.714 63.3271 196.696 65.0713 196.276 66.0404C195.856 67.0094 195.646 67.8493 195.646 68.5599C195.646 69.0767 195.743 69.432 195.937 69.6258C196.163 69.8196 196.567 69.9165 197.149 69.9165C198.021 69.9165 199.378 69.2221 201.221 67.8331C203.063 66.4118 205.276 64.3607 207.862 61.6797C208.637 60.9044 209.526 59.9515 210.528 58.821C211.562 57.6904 212.192 57.1252 212.418 57.1252C212.612 57.1252 212.758 57.1575 212.855 57.2221C212.952 57.2867 213 57.3836 213 57.5128C213 57.8681 212.628 58.498 211.885 59.4024C211.142 60.3069 209.995 61.5343 208.443 63.0848C204.953 66.6703 202.368 69.0121 200.687 70.1104C199.039 71.1763 197.488 71.7093 196.034 71.7093C194.709 71.7093 193.691 71.2894 192.98 70.4495C192.301 69.6097 191.962 68.3822 191.962 66.7672C191.962 66.3472 191.994 65.8789 192.059 65.362C192.123 64.8129 192.253 64.0215 192.447 62.9879C190.184 65.8627 187.987 68.0431 185.854 69.5289C183.753 70.9825 181.782 71.7093 179.94 71.7093C178.162 71.7093 176.757 70.821 175.723 69.0444C174.721 67.2355 174.22 64.7483 174.22 61.5828C174.22 60.8075 174.268 60.0323 174.365 59.2571C174.495 58.4818 174.656 57.7227 174.85 56.9798C174.462 57.5935 174.091 58.0781 173.735 58.4334C173.38 58.7564 173.073 58.9179 172.814 58.9179C172.588 58.9179 172.442 58.8856 172.378 58.821C172.281 58.7564 172.232 58.6595 172.232 58.5303C172.232 58.2719 172.652 57.642 173.493 56.6406C174.333 55.6393 175.464 54.4118 176.886 52.9583C179.988 49.8573 183.091 47.467 186.193 45.7873C189.328 44.0754 192.188 43.2194 194.773 43.2194C196.357 43.2194 197.617 43.6393 198.554 44.4791C199.524 45.319 200.009 46.4334 200.009 47.8223C200.009 48.1454 199.976 48.4845 199.912 48.8398C199.847 49.1952 199.75 49.5828 199.621 50.0027Z" fill="white"/>
<path d="M140.173 35.6673L134.67 20.2773H138.041L141.938 31.6676L145.708 20.2773H149.006L143.492 35.6673H140.173Z" fill="white"/>
<path d="M149.962 28.0668C149.962 26.4991 150.197 25.1833 150.666 24.1195C151.016 23.3357 151.492 22.6323 152.094 22.0094C152.703 21.3865 153.369 20.9246 154.09 20.6237C155.049 20.2178 156.155 20.0148 157.409 20.0148C159.677 20.0148 161.491 20.7182 162.849 22.1249C164.215 23.5316 164.897 25.4878 164.897 27.9933C164.897 30.4778 164.222 32.4234 162.87 33.8301C161.519 35.2299 159.712 35.9297 157.451 35.9297C155.161 35.9297 153.34 35.2334 151.989 33.8406C150.638 32.4409 149.962 30.5163 149.962 28.0668ZM153.165 27.9618C153.165 29.7044 153.568 31.0272 154.373 31.93C155.179 32.8258 156.201 33.2738 157.44 33.2738C158.68 33.2738 159.695 32.8293 160.486 31.9405C161.284 31.0447 161.683 29.7044 161.683 27.9198C161.683 26.1561 161.295 24.8404 160.518 23.9725C159.747 23.1047 158.722 22.6708 157.44 22.6708C156.159 22.6708 155.126 23.1117 154.342 23.9935C153.558 24.8684 153.165 26.1911 153.165 27.9618Z" fill="white"/>
<path d="M167.323 20.2773H173.006C174.287 20.2773 175.264 20.3752 175.936 20.5712C176.839 20.8371 177.613 21.3096 178.257 21.9884C178.901 22.6673 179.391 23.5001 179.727 24.4869C180.064 25.4668 180.232 26.6775 180.232 28.1192C180.232 29.386 180.074 30.4778 179.759 31.3946C179.374 32.5144 178.824 33.4207 178.11 34.1136C177.571 34.6385 176.843 35.0479 175.925 35.3419C175.239 35.5588 174.322 35.6673 173.174 35.6673H167.323V20.2773ZM170.432 22.8808V33.0743H172.753C173.622 33.0743 174.248 33.0253 174.633 32.9273C175.138 32.8013 175.554 32.5879 175.883 32.2869C176.219 31.986 176.493 31.4926 176.703 30.8067C176.913 30.1139 177.018 29.1725 177.018 27.9828C177.018 26.793 176.913 25.8797 176.703 25.2428C176.493 24.6059 176.198 24.109 175.82 23.7521C175.442 23.3952 174.963 23.1537 174.381 23.0277C173.947 22.9297 173.097 22.8808 171.829 22.8808H170.432Z" fill="white"/>
<path d="M182.92 35.6673V20.2773H186.029V27.1114L192.31 20.2773H196.49L190.693 26.2716L196.805 35.6673H192.783L188.55 28.4447L186.029 31.0167V35.6673H182.92Z" fill="white"/>
<path d="M212.308 35.6673H208.926L207.581 32.1715H201.427L200.156 35.6673H196.858L202.855 20.2773H206.142L212.308 35.6673ZM206.583 29.5785L204.462 23.8676L202.382 29.5785H206.583Z" fill="white"/>
</svg>
